<?xml version="1.0" standalone="no"?>
<!DOCTYPE svg PUBLIC "-//W3C//DTD SVG 1.1//EN" "http://www.w3.org/Graphics/SVG/1.1/DTD/svg11.dtd" >
<svg xmlns="http://www.w3.org/2000/svg">
<metadata>Generated by IcoMoon</metadata>
<defs>
<font id="icomoon" horiz-adv-x="1024">
<font-face units-per-em="1024" ascent="960" descent="-64" />
<missing-glyph horiz-adv-x="1024" />
<glyph unicode="&#x20;" horiz-adv-x="512" d="" />
<glyph unicode="&#xe900;" glyph-name="dashboard" horiz-adv-x="986" d="M58.613 891.044v-872.296h706.801v34.478h-672.323v803.34h799.892v-820.579h34.478v855.057zM196.525 725.549v-141.36h34.478v51.717h541.306v34.478h-541.306v55.165zM510.276 384.215v55.165h262.034v34.478h-262.034v51.717h-34.478v-51.717h-262.034v-34.478h262.034v-55.165zM755.071 270.438h-541.306v-34.478h541.306v-55.165h34.478v141.36h-34.478z" />
<glyph unicode="&#xe901;" glyph-name="store" horiz-adv-x="986" d="M827.475-19.178h-648.189c-24.135 0-44.822 20.687-44.822 48.269v330.99h34.478v-330.99c0-10.343 6.896-17.239 13.791-17.239h644.741c6.896 0 13.791 6.896 13.791 17.239v330.99h34.478v-330.99c-3.448-24.135-24.135-48.269-48.269-48.269zM872.296 770.37h-34.478v44.822c0 6.896-6.896 13.791-13.791 13.791h-644.741c-6.896 0-13.791-3.448-13.791-13.791v-44.822h-34.478v44.822c0 24.135 20.687 48.269 44.822 48.269h651.636c24.135 0 44.822-20.687 44.822-48.269v-44.822zM903.327 325.603c-24.135 0-44.822 10.343-58.613 24.135-13.791-13.791-34.478-24.135-58.613-24.135s-44.822 10.343-58.613 24.135c-13.791-13.791-34.478-24.135-58.613-24.135s-44.822 10.343-58.613 24.135c-13.791-13.791-34.478-24.135-58.613-24.135s-44.822 10.343-58.613 24.135c-13.791-13.791-34.478-24.135-58.613-24.135s-44.822 10.343-58.613 24.135c-13.791-13.791-34.478-24.135-58.613-24.135s-44.822 10.343-58.613 24.135c-13.791-13.791-34.478-24.135-58.613-24.135s-27.582 6.896-41.374 24.135c-13.791-13.791-34.478-24.135-58.613-24.135-41.374 0-72.404 31.030-72.404 68.956 0 10.343 0 24.135 3.448 34.478v17.239l89.643 313.751c6.896 20.687 20.687 31.030 37.926 31.030h689.562c17.239 0 31.030-13.791 37.926-31.030l89.643-317.199c0-6.896 0-13.791 0-20.687 0-10.343 3.448-17.239 3.448-27.582-3.448-37.926-34.478-68.956-75.852-68.956zM830.923 398.007h27.582l6.896-13.791c3.448-17.239 20.687-27.582 41.374-27.582 24.135 0 41.374 13.791 41.374 34.478 0 6.896 0 17.239 0 24.135s0 13.791 0 20.687l-86.195 310.303c0 3.448-3.448 6.896-6.896 6.896h-689.562c-10.343 3.448-13.791 0-13.791-3.448l-86.195-310.303v-13.791c0-10.343-3.448-20.687-3.448-31.030 0-20.687 17.239-34.478 41.374-34.478 20.687 0 34.478 10.343 41.374 27.582l3.448 13.791h24.135l3.448-13.791c3.448-17.239 20.687-27.582 41.374-27.582s34.478 10.343 41.374 27.582l3.448 13.791h27.582l6.896-13.791c3.448-17.239 20.687-27.582 41.374-27.582s34.478 10.343 41.374 27.582l3.448 13.791h27.582l6.896-13.791c3.448-17.239 20.687-27.582 41.374-27.582s34.478 10.343 41.374 27.582l3.448 13.791h27.582l6.896-13.791c3.448-17.239 20.687-27.582 41.374-27.582s34.478 10.343 41.374 27.582l3.448 13.791h27.582l6.896-13.791c3.448-17.239 20.687-27.582 41.374-27.582s34.478 10.343 41.374 27.582l3.448 13.791h27.582l6.896-13.791c3.448-17.239 20.687-27.582 41.374-27.582s34.478 10.343 41.374 27.582l-31.030 10.343zM48.269 456.62h910.222v-34.478h-910.222v34.478zM486.141 735.892h34.478v-244.795h-34.478v244.795zM581.988 734.722l34.413 2.129 15.117-244.33-34.413-2.129-15.117 244.33zM370.158 491.978l15.061 244.33 34.413-2.121-15.061-244.33-34.413 2.121zM677.957 732.699l34.216 4.237 30.085-242.934-34.216-4.237-30.085 242.934zM256.239 493.279l30.134 242.934 34.216-4.244-30.134-242.934-34.216 4.244zM774.131 730.677l33.895 6.303 45.379-244.047-33.895-6.303-45.379 244.047zM146.524 494.374l45.354 244.072 33.899-6.299-45.354-244.072-33.899 6.299zM451.663-19.178h-220.66v248.242c0 24.135 20.687 48.269 48.269 48.269h124.121c24.135 0 48.269-20.687 48.269-48.269v-248.242zM265.481 15.3h151.704v217.212c0 6.896-6.896 13.791-13.791 13.791h-124.121c-6.896 0-13.791-6.896-13.791-13.791v-217.212zM382.707 111.838h13.791v-34.478h-13.791v34.478zM255.138 153.212h179.286v-34.478h-179.286v34.478zM737.832 60.121h-124.121c-27.582 0-51.717 24.135-51.717 51.717v110.33c0 27.582 24.135 51.717 51.717 51.717h124.121c27.582 0 51.717-24.135 51.717-51.717v-110.33c0-27.582-24.135-51.717-51.717-51.717zM610.263 246.303c-10.343 0-20.687-10.343-20.687-20.687v-110.33c0-10.343 10.343-20.687 20.687-20.687h124.121c10.343 0 20.687 10.343 20.687 20.687v110.33c0 10.343-10.343 20.687-20.687 20.687h-124.121zM575.785 187.69h196.525v-34.478h-196.525v34.478zM658.532 266.99h34.478v-196.525h-34.478v196.525z" />
<glyph unicode="&#xe902;" glyph-name="liquidacion" horiz-adv-x="986" d="M810.236 218.721h-193.077v34.478h193.077c17.239 0 31.030 13.791 31.030 31.030v386.155c0 17.239-13.791 31.030-31.030 31.030h-196.525v34.478h196.525c34.478 0 65.508-27.582 65.508-65.508v-386.155c-3.448-37.926-31.030-65.508-65.508-65.508zM658.532 263.542c-13.791 0-27.582 13.791-27.582 27.582 0 6.896 3.448 13.791 6.896 20.687 3.448 3.448 10.343 6.896 20.687 6.896v0c0 0 0 0 0 0 6.896 0 13.791-3.448 20.687-6.896s6.896-13.791 6.896-20.687c0-6.896-3.448-13.791-6.896-20.687s-13.791-6.896-20.687-6.896c0 0 0 0 0 0zM658.532 298.020c0 0 0 0 0 0-3.448 0-3.448 0-3.448-3.448 0 0-3.448-3.448-3.448-3.448 0-3.448 0-3.448 3.448-3.448 0 0 3.448-3.448 3.448-3.448v0c3.448 0 6.896 3.448 6.896 6.896s-3.448 6.896-6.896 6.896zM720.593 263.542c-6.896 0-13.791 3.448-20.687 6.896-6.896 6.896-6.896 13.791-6.896 20.687s3.448 13.791 6.896 20.687c6.896 6.896 13.791 6.896 20.687 6.896v0c0 0 0 0 0 0 6.896 0 13.791-3.448 20.687-6.896 6.896-6.896 6.896-13.791 6.896-20.687 0-17.239-13.791-27.582-27.582-27.582 0 0 0 0 0 0zM720.593 298.020c0 0 0 0 0 0-3.448 0-6.896-3.448-6.896-6.896s3.448-6.896 6.896-6.896v0 0c3.448 0 3.448 0 3.448 3.448 0 0 3.448 3.448 3.448 3.448 0 3.448-3.448 6.896-6.896 6.896zM779.205 263.542c-13.791 0-27.582 13.791-27.582 27.582s13.791 27.582 27.582 27.582c0 0 0 0 0 0 13.791 0 27.582-13.791 27.582-27.582s-13.791-27.582-27.582-27.582c0 0 0 0 0 0zM779.205 298.020c-3.448 0-6.896-3.448-6.896-6.896s3.448-6.896 6.896-6.896c0 0 0 0 0 0 3.448 0 6.896 3.448 6.896 6.896s-3.448 6.896-6.896 6.896c0 0 0 0 0 0v0 0zM586.128-26.074h-475.798c-20.687 0-37.926 17.239-37.926 37.926v789.549c0 20.687 17.239 37.926 37.926 37.926h44.822v-34.478h-44.822c-3.448 0-3.448-3.448-3.448-3.448v-789.549c0-3.448 3.448-3.448 3.448-3.448h475.798c3.448 0 3.448 3.448 3.448 3.448v789.549c0 3.448-3.448 3.448-3.448 3.448h-48.269v34.478h48.269c20.687 0 37.926-17.239 37.926-37.926v-789.549c0-20.687-17.239-37.926-37.926-37.926zM548.202 404.902h-403.394c-10.343 0-20.687 10.343-20.687 20.687v237.899c0 10.343 10.343 20.687 20.687 20.687h403.394c10.343 0 20.687-10.343 20.687-20.687v-237.899c0-10.343-10.343-20.687-20.687-20.687zM158.599 439.38h375.811v213.764h-375.811v-213.764zM155.152 732.444h382.707v-34.478h-382.707v34.478zM520.62 715.205h-34.478v144.808h-282.721v-144.808h-34.478v148.256c0 17.239 13.791 31.030 31.030 31.030h286.168c17.239 0 31.030-13.791 31.030-31.030v-148.256zM151.704 373.872h31.030v-34.478h-31.030v34.478zM244.795 373.872h34.478v-34.478h-34.478v34.478zM427.529 373.872h31.030v-34.478h-31.030v34.478zM520.62 373.872h31.030v-34.478h-31.030v34.478zM351.677 322.155c-20.687 0-34.478 17.239-34.478 34.478 0 20.687 17.239 34.478 34.478 34.478s34.478-17.239 34.478-34.478c3.448-20.687-13.791-34.478-34.478-34.478zM351.677 356.633c0 0 0 0 0 0v0zM148.256 308.364h86.195v-34.478h-86.195v34.478zM303.407 308.364h86.195v-34.478h-86.195v34.478zM462.007 308.364h86.195v-34.478h-86.195v34.478zM148.256 253.199h86.195v-34.478h-86.195v34.478zM303.407 253.199h86.195v-34.478h-86.195v34.478zM462.007 253.199h86.195v-34.478h-86.195v34.478zM148.256 198.034h86.195v-34.478h-86.195v34.478zM303.407 198.034h86.195v-34.478h-86.195v34.478zM462.007 198.034h86.195v-34.478h-86.195v34.478zM148.256 142.869h86.195v-34.478h-86.195v34.478zM303.407 142.869h86.195v-34.478h-86.195v34.478zM462.007 142.869h86.195v-34.478h-86.195v34.478zM148.256 84.256h86.195v-34.478h-86.195v34.478zM303.407 84.256h86.195v-34.478h-86.195v34.478zM462.007 84.256h86.195v-34.478h-86.195v34.478zM241.347 835.879h210.316v-34.478h-210.316v34.478zM241.347 784.162h210.316v-34.478h-210.316v34.478z" />
<glyph unicode="&#xe903;" glyph-name="catalog" horiz-adv-x="986" d="M368.916 532.471c-34.478 0-65.508 27.582-65.508 65.508 0 34.478 27.582 65.508 65.508 65.508 34.478 0 65.508-27.582 65.508-65.508s-27.582-65.508-65.508-65.508zM368.916 625.562c-17.239 0-31.030-13.791-31.030-31.030s13.791-31.030 31.030-31.030c17.239 0 31.030 13.791 31.030 31.030s-13.791 31.030-31.030 31.030zM430.976-43.313l-96.539 172.391-196.525-3.448 34.478 196.525-151.704 124.121 151.704 127.569-34.478 193.077h196.525l96.539 168.943 151.704-127.569 182.734 68.956 17.239-82.747-34.478-6.896-6.896 44.822-165.495-62.061-134.465 113.778-86.195-151.704h-175.838l31.030-172.391-137.912-113.778 137.912-110.33-31.030-175.838h175.838l86.195-151.704 134.465 113.778 165.495-62.061 27.582 175.838 165.495 58.613-86.195 151.704 86.195 151.704-155.152 58.613 10.343 31.030 196.525-68.956-99.987-172.391 99.987-168.943-186.182-68.956-34.478-193.077-182.734 68.956zM325.623 295.589l350.965 351.213 24.39-24.373-350.965-351.213-24.39 24.373zM648.189 270.438c-34.478 0-65.508 27.582-65.508 65.508 0 34.478 27.582 65.508 65.508 65.508 34.478 0 65.508-27.582 65.508-65.508s-27.582-65.508-65.508-65.508zM648.189 366.976c-17.239 0-31.030-13.791-31.030-31.030s13.791-31.030 31.030-31.030c17.239 0 31.030 13.791 31.030 31.030s-13.791 31.030-31.030 31.030z" />
<glyph unicode="&#xe904;" glyph-name="client" horiz-adv-x="986" d="M865.401 22.195h-761.966l55.165 441.32 172.391 58.613 13.791-34.478-151.704-48.269-48.269-382.707h682.667l-48.269 382.707-330.99 99.987 10.343 34.478 351.677-110.33zM486.141 266.99l-158.599 231.003 31.030 17.239 127.569-186.182 127.569 179.286 27.582-20.687zM262.034 263.542h103.434v-34.478h-103.434v34.478zM479.246 535.919c-17.239 0-37.926 3.448-55.165 10.343-65.508 24.135-110.33 89.643-110.33 162.047 0 93.091 75.852 172.391 172.391 172.391 93.091 0 172.391-75.852 172.391-172.391 0-68.956-31.030-120.673-93.091-148.256-31.030-13.791-58.613-24.135-86.195-24.135zM486.141 846.222c-75.852 0-137.912-62.061-137.912-137.912 0-55.165 34.478-106.882 89.643-127.569 34.478-13.791 72.404-10.343 113.778 10.343 48.269 24.135 68.956 62.061 68.956 117.226 0 75.852-58.613 137.912-134.465 137.912z" />
<glyph unicode="&#xe905;" glyph-name="comercio" horiz-adv-x="986" d="M479.246-29.522c-117.226 0-248.242 10.343-313.751 86.195-34.478 41.374-48.269 103.434-34.478 175.838 24.135 155.152 89.643 275.825 179.286 337.886l20.687-27.582c-82.747-58.613-141.36-168.943-165.495-317.199-10.343-65.508 0-113.778 27.582-148.256 55.165-65.508 175.838-72.404 286.168-72.404s231.003 10.343 286.168 72.404c31.030 34.478 37.926 82.747 27.582 148.256-24.135 155.152-89.643 272.377-179.286 324.094l17.239 31.030c99.987-58.613 168.943-182.734 196.525-348.229 13.791-75.852 0-134.465-34.478-175.838-68.956-79.3-196.525-86.195-313.751-86.195zM327.542 618.667c-3.448 75.852-55.165 127.569-106.882 179.286l-20.687 20.687 17.239 10.343c79.3 51.717 127.569 34.478 162.047 17.239 27.582-13.791 44.822-17.239 72.404 6.896 44.822 41.374 93.091 62.061 148.256 55.165 65.508-6.896 117.226-48.269 141.36-82.747l3.448-3.448v-6.896c-10.343-62.061-44.822-96.539-75.852-127.569-24.135-20.687-41.374-37.926-48.269-62.061l-34.478 10.343c10.343 34.478 34.478 58.613 55.165 79.3 27.582 27.582 55.165 55.165 65.508 99.987-24.135 27.582-65.508 58.613-110.33 62.061-41.374 3.448-82.747-10.343-120.673-48.269-44.822-41.374-79.3-24.135-110.33-13.791-27.582 13.791-58.613 24.135-110.33-3.448 48.269-51.717 103.434-110.33 106.882-189.63l-34.478-3.448zM417.185 553.158c-58.613 3.448-93.091 20.687-93.091 20.687l13.791 31.030c0 0 31.030-13.791 82.747-17.239l-3.448-34.478zM534.411 556.606l-6.896 34.478c27.582 6.896 55.165 13.791 82.747 24.135l13.791-31.030c-31.030-10.343-62.061-20.687-89.643-27.582zM427.529 584.189h34.478v-34.478h-34.478v34.478zM455.111 584.189h34.478v-34.478h-34.478v34.478zM482.694 584.189h34.478v-34.478h-34.478v34.478zM541.306 384.215c-37.926 31.030-62.061 62.061-72.404 89.643-13.791-17.239-27.582-27.582-37.926-34.478l-20.687 27.582c20.687 13.791 41.374 37.926 44.822 58.613 0 3.448 0 3.448 0 6.896l34.478-3.448c0 0 0-3.448 0-3.448 0-10.343 3.448-55.165 72.404-110.33l-20.687-31.030zM506.828 784.162c-89.643 0-134.465 27.582-134.465 31.030l20.687 27.582c0 0 58.613-37.926 175.838-20.687l3.448-34.478c-24.135-3.448-44.822-3.448-65.508-3.448zM479.246 132.525c-6.896 0-13.791 0-17.239 3.448-31.030 6.896-48.269 34.478-48.269 72.404h34.478c0-20.687 10.343-34.478 24.135-41.374 13.791-3.448 27.582 0 37.926 13.791 3.448 6.896 6.896 10.343 3.448 17.239 0 17.239-17.239 27.582-41.374 41.374-20.687 10.343-44.822 24.135-51.717 55.165-3.448 24.135 0 44.822 13.791 62.061 10.343 13.791 27.582 20.687 48.269 20.687 44.822 0 62.061-51.717 62.061-72.404h-34.478c0 6.896-6.896 41.374-27.582 41.374-10.343 0-17.239-3.448-20.687-10.343-6.896-6.896-6.896-20.687-6.896-34.478 3.448-10.343 13.791-20.687 34.478-31.030 24.135-13.791 55.165-31.030 58.613-68.956 0-13.791-3.448-24.135-10.343-37.926-17.239-20.687-37.926-31.030-58.613-31.030zM458.559 394.559h34.478v-34.478h-34.478v34.478zM458.559 146.316h34.478v-34.478h-34.478v34.478z" />
<glyph unicode="&#xe906;" glyph-name="alert" horiz-adv-x="986" d="M824.027 146.316c-10.343 41.374-27.582 96.539 13.791 227.556l20.687 58.613c41.374 124.121-6.896 255.138-110.33 327.542l3.448 10.343c13.791 44.822-10.343 89.643-51.717 103.434s-89.643-10.343-103.434-51.717l-3.448-10.343c-124.121 3.448-241.347-75.852-282.721-199.973l-20.687-58.613c-41.374-131.017-89.643-165.495-120.673-193.077-20.687-13.791-37.926-31.030-44.822-55.165-20.687-65.508 103.434-131.017 210.316-172.391 0-51.717 31.030-99.987 86.195-117.226 51.717-17.239 106.882 3.448 137.912 44.822 110.33-27.582 251.69-48.269 272.377 13.791 3.448 27.582 0 48.269-6.896 72.404zM634.397 808.296c6.896 20.687 31.030 34.478 51.717 27.582s34.478-31.030 27.582-51.717v-3.448c-13.791 6.896-24.135 10.343-37.926 17.239-17.239 3.448-31.030 6.896-41.374 10.343v0 0zM430.976 53.226c-27.582 10.343-48.269 34.478-55.165 62.061 27.582-10.343 51.717-17.239 68.956-24.135s41.374-13.791 68.956-20.687c-24.135-20.687-55.165-27.582-82.747-17.239zM455.111 132.525c-179.286 58.613-303.407 134.465-293.064 162.047 3.448 13.791 13.791 20.687 31.030 37.926 34.478 27.582 89.643 68.956 134.465 210.316l20.687 58.613c41.374 131.017 182.734 199.973 310.303 158.599s199.973-182.734 158.599-310.303l-20.687-58.613c-44.822-141.36-27.582-206.869-17.239-251.69 6.896-24.135 10.343-34.478 3.448-48.269-3.448-31.030-148.256-17.239-327.542 41.374z" />
<glyph unicode="&#xe907;" glyph-name="arrow-down-l" horiz-adv-x="986" d="M441.32 239.407l-196.525 196.525c-13.791 13.791-13.791 34.478 0 48.269s34.478 13.791 48.269 0l148.256-148.256 148.256 148.256c13.791 13.791 34.478 13.791 48.269 0s13.791-34.478 0-48.269l-196.525-196.525z" />
<glyph unicode="&#xe908;" glyph-name="search" horiz-adv-x="986" d="M475.798 177.347c-79.3 0-162.047 31.030-220.66 89.643s-89.643 137.912-89.643 220.66c0 82.747 31.030 162.047 89.643 220.66s137.912 89.643 220.66 89.643 162.047-31.030 220.66-89.643c120.673-120.673 120.673-317.199 0-437.872-6.896-6.896-17.239-6.896-24.135 0s-6.896 17.239 0 24.135c106.882 106.882 106.882 282.721 0 389.603-51.717 51.717-120.673 79.3-196.525 79.3s-144.808-27.582-196.525-79.3c-51.717-51.717-79.3-120.673-79.3-196.525 0-72.404 27.582-144.808 79.3-196.525 86.195-86.195 220.66-106.882 327.542-48.269 6.896 3.448 17.239 0 24.135-6.896 3.448-6.896 0-17.239-6.896-24.135-44.822-20.687-96.539-34.478-148.256-34.478zM820.579 125.63c-3.448 0-10.343 0-13.791 3.448l-137.912 137.912c-6.896 6.896-6.896 17.239 0 24.135s17.239 6.896 24.135 0l137.912-137.912c6.896-6.896 6.896-17.239 0-24.135 0 0-3.448-3.448-10.343-3.448zM279.273 470.411c0 0 0 0 0 0-10.343 0-17.239 6.896-17.239 17.239 3.448 51.717 24.135 103.434 62.061 141.36 41.374 41.374 99.987 65.508 162.047 62.061 10.343 0 17.239-6.896 17.239-17.239s-10.343-17.239-20.687-17.239c-51.717 3.448-99.987-17.239-134.465-51.717-31.030-31.030-48.269-72.404-51.717-117.226 0-10.343-6.896-17.239-17.239-17.239z" />
<glyph unicode="&#xe909;" glyph-name="close" horiz-adv-x="986" d="M658.532 277.333v0c-10.343-10.343-27.582-13.791-34.478-3.448l-293.064 289.616c-10.343 10.343-10.343 24.135 0 34.478l3.448 3.448c10.343 10.343 24.135 10.343 34.478 0l293.064-289.616c6.896-10.343 6.896-24.135-3.448-34.478zM334.438 270.438v0c-10.343 10.343-13.791 27.582-3.448 34.478l289.616 293.064c10.343 10.343 24.135 10.343 34.478 0l3.448-3.448c10.343-10.343 10.343-24.135 0-34.478l-289.616-293.064c-10.343-3.448-24.135-3.448-34.478 3.448zM493.037-29.522c-255.138 0-465.455 210.316-465.455 465.455s210.316 465.455 465.455 465.455 465.455-210.316 465.455-465.455-206.869-465.455-465.455-465.455zM493.037 846.222c-224.108 0-410.29-182.734-410.29-410.29s182.734-410.29 410.29-410.29 410.29 182.734 410.29 410.29-182.734 410.29-410.29 410.29z" />
<glyph unicode="&#xe90a;" glyph-name="total" horiz-adv-x="986" d="M789.549-1.939l-137.912 124.121 27.582 31.030 103.434-93.091 141.36 217.212 34.478-20.687zM599.919 8.404h-544.754l27.582 689.562h96.539v-41.374h-55.165l-24.135-606.815h499.933v-41.374zM693.010 346.29l-13.791 313.751h-386.155v37.926h424.081l17.239-351.677h-41.374zM313.751 677.279h-41.374v106.882c0 82.747 65.508 127.569 127.569 127.569 65.508 0 127.569-44.822 127.569-127.569h-41.374c0 58.613-44.822 86.195-86.195 86.195-44.822 0-86.195-27.582-86.195-86.195v-106.882zM293.064 584.189h217.212v-41.374h-217.212v41.374z" />
<glyph unicode="&#xe90b;" glyph-name="paper" horiz-adv-x="986" d="M179.286-43.313c-6.896 0-13.791 6.896-13.791 13.791 0 0 0 0 0 0v886.088c0 6.896 6.896 13.791 13.791 13.791h348.229c6.896 0 13.791-6.896 13.791-13.791s-6.896-13.791-13.791-13.791h-334.438v-813.684c10.343 6.896 24.135 13.791 37.926 13.791 31.030 0 58.613-24.135 65.508-51.717h51.717c3.448 13.791 10.343 24.135 17.239 34.478 13.791 13.791 31.030 20.687 48.269 20.687 31.030 0 58.613-24.135 65.508-51.717h31.030c0 0 0 0 0 0 6.896 0 13.791-6.896 13.791-13.791s-6.896-13.791-13.791-13.791h-44.822c-6.896 0-13.791 6.896-13.791 13.791 0 20.687-17.239 37.926-37.926 37.926-10.343 0-20.687-3.448-27.582-10.343s-10.343-17.239-10.343-27.582c0-3.448 0-6.896-3.448-10.343s-6.896-3.448-10.343-3.448h-79.3c0 0 0 0 0 0-6.896 0-13.791 6.896-13.791 13.791 0 20.687-17.239 37.926-37.926 37.926-10.343 0-20.687-3.448-27.582-10.343s-10.343-17.239-10.343-27.582v0c0-17.239-3.448-24.135-13.791-24.135 0 0 0 0 0 0zM503.38-39.865c-6.896 0-13.791 6.896-13.791 13.791s6.896 13.791 13.791 13.791h34.478c6.896 31.030 34.478 51.717 65.508 51.717 0 0 0 0 0 0 31.030 0 58.613-24.135 65.508-51.717h55.165c3.448 13.791 10.343 24.135 17.239 34.478 13.791 13.791 31.030 20.687 48.269 20.687s34.478-6.896 48.269-20.687c13.791-13.791 20.687-31.030 20.687-48.269 0-6.896-6.896-13.791-13.791-13.791s-13.791 6.896-13.791 13.791c0 10.343-3.448 20.687-10.343 27.582s-17.239 10.343-27.582 10.343c-10.343 0-20.687-3.448-27.582-10.343s-10.343-17.239-10.343-27.582c0-3.448 0-6.896-3.448-10.343-6.896-3.448-10.343-3.448-13.791-3.448h-82.747c-3.448 0-6.896 0-10.343 3.448s-3.448 6.896-3.448 10.343c0 20.687-17.239 37.926-37.926 37.926 0 0 0 0 0 0-20.687 0-37.926-17.239-37.926-37.926 0-3.448 0-6.896-3.448-10.343s-6.896-3.448-10.343-3.448h-48.269c0 0 0 0 0 0zM841.266 108.391c-6.896 0-13.791 6.896-13.791 13.791v720.593h-334.438c-6.896 0-13.791 6.896-13.791 13.791s6.896 13.791 13.791 13.791h348.229c3.448 0 6.896 0 10.343-3.448s3.448-6.896 3.448-10.343v-734.384c3.448-6.896-3.448-13.791-13.791-13.791 0 0 0 0 0 0zM306.855 284.229c-6.896 0-13.791 6.896-13.791 13.791s6.896 13.791 13.791 13.791h406.842c6.896 0 13.791-6.896 13.791-13.791s-6.896-13.791-13.791-13.791h-406.842c3.448 0 3.448 0 0 0zM306.855 422.141c-6.896 0-13.791 6.896-13.791 13.791s6.896 13.791 13.791 13.791h203.421c6.896 0 13.791-6.896 13.791-13.791s-6.896-13.791-13.791-13.791h-203.421c0 0 0 0 0 0zM306.855 560.054c-6.896 0-13.791 6.896-13.791 13.791s6.896 13.791 13.791 13.791h406.842c6.896 0 13.791-6.896 13.791-13.791s-6.896-13.791-13.791-13.791h-406.842c0 0 0 0 0 0zM306.855 697.966c-6.896 0-13.791 6.896-13.791 13.791s6.896 13.791 13.791 13.791h203.421c6.896 0 13.791-6.896 13.791-13.791s-6.896-13.791-13.791-13.791h-203.421c0 0 0 0 0 0z" />
<glyph unicode="&#xe90c;" glyph-name="percentage" horiz-adv-x="986" d="M751.623 597.98c0 0 0 0 0 0h-568.889c-6.896 0-13.791 6.896-13.791 13.791s6.896 13.791 13.791 13.791c0 0 0 0 0 0h568.889c6.896 0 13.791-6.896 13.791-13.791s-6.896-13.791-13.791-13.791zM472.35 477.306c0 0 0 0 0 0h-286.168c-10.343 0-13.791 3.448-13.791 10.343s6.896 13.791 13.791 13.791c0 0 0 0 0 0h286.168c6.896 0 13.791-6.896 13.791-13.791-3.448-6.896-6.896-10.343-13.791-10.343zM472.35 353.185c0 0 0 0 0 0h-286.168c-6.896 0-13.791 6.896-13.791 13.791s6.896 13.791 13.791 13.791c0 0 0 0 0 0h286.168c6.896 0 13.791-6.896 13.791-13.791-3.448-10.343-6.896-13.791-13.791-13.791zM686.114 291.125c0 0 0 0 0 0v0c-31.030 0-58.613 24.135-58.613 58.613 0 31.030 24.135 58.613 58.613 58.613 0 0 0 0 0 0 13.791 0 31.030-6.896 41.374-17.239s17.239-24.135 17.239-41.374c-3.448-34.478-27.582-58.613-58.613-58.613zM686.114 315.259c0 0 0 0 0 0 17.239 0 31.030 13.791 31.030 31.030 0 10.343-3.448 17.239-10.343 24.135s-13.791 10.343-24.135 10.343c0 0 0 0 0 0-17.239 0-31.030-13.791-31.030-31.030 0-20.687 17.239-34.478 34.478-34.478v0zM665.428 80.808c-3.448 0-6.896 0-6.896 3.448-3.448 3.448-3.448 13.791 0 17.239l282.721 282.721c3.448 3.448 13.791 3.448 17.239 0s3.448-13.791 0-17.239l-282.721-282.721c-3.448-3.448-6.896-3.448-10.343-3.448zM917.118 73.912c0 0 0 0 0 0-13.791 0-31.030 6.896-41.374 17.239s-13.791 24.135-13.791 41.374c0 31.030 24.135 58.613 58.613 58.613 0 0 0 0 0 0 13.791 0 31.030-6.896 41.374-17.239s17.239-24.135 17.239-41.374c0-13.791-6.896-31.030-17.239-41.374-13.791-10.343-27.582-17.239-44.822-17.239zM917.118 163.556c-17.239 0-31.030-13.791-31.030-31.030 0-10.343 3.448-17.239 10.343-24.135s13.791-10.343 24.135-10.343c0 0 0 0 0 0 10.343 0 17.239 3.448 24.135 10.343s10.343 13.791 10.343 24.135c0 10.343-3.448 17.239-10.343 24.135-10.343 3.448-17.239 6.896-27.582 6.896 0 0 0 0 0 0zM589.576 153.212c0 0 0 0 0 0h-465.455c-41.374 0-72.404 31.030-72.404 72.404v499.933c0 37.926 31.030 72.404 72.404 72.404 0 0 0 0 0 0h689.562c20.687 0 37.926-6.896 51.717-20.687s20.687-31.030 20.687-51.717v-275.825c0-6.896-6.896-13.791-13.791-13.791 0 0 0 0 0 0-6.896 0-13.791 6.896-13.791 13.791v275.825c0 13.791-3.448 24.135-13.791 34.478s-20.687 13.791-34.478 13.791h-689.562c0 0 0 0 0 0-24.135 0-44.822-20.687-44.822-48.269v-499.933c0-27.582 20.687-48.269 48.269-48.269h465.455c6.896 0 13.791-6.896 13.791-13.791 0-3.448-6.896-10.343-13.791-10.343zM751.623 597.98c0 0 0 0 0 0h-568.889c-6.896 0-13.791 6.896-13.791 13.791s6.896 13.791 13.791 13.791c0 0 0 0 0 0h568.889c6.896 0 13.791-6.896 13.791-13.791s-6.896-13.791-13.791-13.791zM472.35 477.306c0 0 0 0 0 0h-286.168c-10.343 0-13.791 3.448-13.791 10.343s6.896 13.791 13.791 13.791c0 0 0 0 0 0h286.168c6.896 0 13.791-6.896 13.791-13.791-3.448-6.896-6.896-10.343-13.791-10.343zM472.35 353.185c0 0 0 0 0 0h-286.168c-6.896 0-13.791 6.896-13.791 13.791s6.896 13.791 13.791 13.791c0 0 0 0 0 0h286.168c6.896 0 13.791-6.896 13.791-13.791-3.448-10.343-6.896-13.791-13.791-13.791zM686.114 291.125c0 0 0 0 0 0v0c-31.030 0-58.613 24.135-58.613 58.613 0 31.030 24.135 58.613 58.613 58.613 0 0 0 0 0 0 13.791 0 31.030-6.896 41.374-17.239s17.239-24.135 17.239-41.374c-3.448-34.478-27.582-58.613-58.613-58.613zM686.114 315.259c0 0 0 0 0 0 17.239 0 31.030 13.791 31.030 31.030 0 10.343-3.448 17.239-10.343 24.135s-13.791 10.343-24.135 10.343c0 0 0 0 0 0-17.239 0-31.030-13.791-31.030-31.030 0-20.687 17.239-34.478 34.478-34.478v0zM665.428 80.808c-3.448 0-6.896 0-6.896 3.448-3.448 3.448-3.448 13.791 0 17.239l282.721 282.721c3.448 3.448 13.791 3.448 17.239 0s3.448-13.791 0-17.239l-282.721-282.721c-3.448-3.448-6.896-3.448-10.343-3.448zM917.118 73.912c0 0 0 0 0 0-13.791 0-31.030 6.896-41.374 17.239s-13.791 24.135-13.791 41.374c0 31.030 24.135 58.613 58.613 58.613 0 0 0 0 0 0 13.791 0 31.030-6.896 41.374-17.239s17.239-24.135 17.239-41.374c0-13.791-6.896-31.030-17.239-41.374-13.791-10.343-27.582-17.239-44.822-17.239zM917.118 163.556c-17.239 0-31.030-13.791-31.030-31.030 0-10.343 3.448-17.239 10.343-24.135s13.791-10.343 24.135-10.343c0 0 0 0 0 0 10.343 0 17.239 3.448 24.135 10.343s10.343 13.791 10.343 24.135c0 10.343-3.448 17.239-10.343 24.135-10.343 3.448-17.239 6.896-27.582 6.896 0 0 0 0 0 0zM589.576 153.212c0 0 0 0 0 0h-465.455c-41.374 0-72.404 31.030-72.404 72.404v499.933c0 37.926 31.030 72.404 72.404 72.404 0 0 0 0 0 0h689.562c20.687 0 37.926-6.896 51.717-20.687s20.687-31.030 20.687-51.717v-275.825c0-6.896-6.896-13.791-13.791-13.791 0 0 0 0 0 0-6.896 0-13.791 6.896-13.791 13.791v275.825c0 13.791-3.448 24.135-13.791 34.478s-20.687 13.791-34.478 13.791h-689.562c0 0 0 0 0 0-24.135 0-44.822-20.687-44.822-48.269v-499.933c0-27.582 20.687-48.269 48.269-48.269h465.455c6.896 0 13.791-6.896 13.791-13.791 0-3.448-6.896-10.343-13.791-10.343z" />
<glyph unicode="&#xe91a;" glyph-name="chat" horiz-adv-x="986" d="M789.549-36.418l-148.256 148.256h-227.556v27.582h237.899l110.33-110.33v110.33h89.643c20.687 0 37.926 17.239 37.926 37.926v530.963c0 20.687-17.239 37.926-37.926 37.926v27.582c34.478 0 65.508-27.582 65.508-65.508v-530.963c0-34.478-27.582-65.508-65.508-65.508h-65.508v-148.256zM227.556 94.599v148.256h-65.508c-34.478 0-65.508 27.582-65.508 65.508v561.993c0 34.478 27.582 65.508 65.508 65.508h561.993c34.478 0 65.508-27.582 65.508-65.508v-93.091h-27.582v93.091c0 20.687-17.239 37.926-37.926 37.926h-561.993c-20.687 0-37.926-17.239-37.926-37.926v-565.441c0-20.687 17.239-37.926 37.926-37.926h89.643v-113.778l113.778 113.778h358.572c20.687 0 37.926 17.239 37.926 37.926v341.333h27.582v-337.886c0-34.478-27.582-65.508-65.508-65.508h-348.229l-148.256-148.256zM279.273 728.997h313.751v-27.582h-313.751v27.582zM779.205 773.818h79.3v-27.582h-79.3v27.582zM279.273 594.532h313.751v-27.582h-313.751v27.582zM279.273 460.067h313.751v-27.582h-313.751v27.582z" />
<glyph unicode="&#xe91b;" glyph-name="commet" horiz-adv-x="986" d="M234.451 29.091v148.256h-65.508c-34.478 0-65.508 27.582-65.508 65.508v565.441c0 34.478 27.582 65.508 65.508 65.508h679.219c34.478 0 65.508-27.582 65.508-65.508v-93.091h-27.582v93.091c0 20.687-17.239 37.926-37.926 37.926h-679.219c-20.687 0-37.926-17.239-37.926-37.926v-565.441c0-20.687 17.239-37.926 37.926-37.926h89.643v-113.778l110.33 113.778h475.798c20.687 0 37.926 17.239 37.926 37.926v337.886h27.582v-337.886c0-34.478-31.030-65.508-65.508-65.508h-458.559l-151.704-148.256zM493.037 539.367h34.478v-27.582h-34.478v27.582zM317.199 539.367h34.478v-27.582h-34.478v27.582zM665.428 539.367h34.478v-27.582h-34.478v27.582z" />
<glyph unicode="&#xe91c;" glyph-name="box" horiz-adv-x="986" d="M913.67 56.673h-661.98v24.135h637.845v627.502h-758.519v-637.845h-24.135v665.428h806.788zM248.242 211.825h520.62v-27.582h-520.62v27.582zM248.242 608.323h131.017v-27.582h-131.017v27.582zM892.983 711.758l-127.569 127.569h-510.276l-127.569-127.569-17.239 20.687 134.465 134.465h530.963l134.465-134.465zM496.485 853.118h27.582v-131.017h-27.582v131.017zM248.242 487.65h131.017v-27.582h-131.017v27.582z" />
<glyph unicode="&#xe91d;" glyph-name="car" horiz-adv-x="986" d="M268.929 35.987c-41.374 0-79.3 34.478-79.3 79.3s34.478 79.3 79.3 79.3c41.374 0 79.3-34.478 79.3-79.3s-34.478-79.3-79.3-79.3zM268.929 170.451c-31.030 0-55.165-24.135-55.165-55.165s24.135-55.165 55.165-55.165c31.030 0 55.165 24.135 55.165 55.165 3.448 27.582-24.135 55.165-55.165 55.165zM924.013 101.495h-158.599v20.687h137.912v193.077h-551.65v241.347h20.687v-217.212h551.65v-237.899zM630.949 101.495h-293.064v20.687h296.512v-20.687zM203.421 101.495h-158.599v227.556l220.66 330.99h99.987v-20.687h-89.643l-210.316-313.751v-199.973h137.912v-24.135zM699.906 35.987c-41.374 0-79.3 34.478-79.3 79.3s34.478 79.3 79.3 79.3c41.374 0 79.3-34.478 79.3-79.3s-37.926-79.3-79.3-79.3zM699.906 170.451c-31.030 0-55.165-24.135-55.165-55.165s24.135-55.165 55.165-55.165c31.030 0 55.165 24.135 55.165 55.165 0 27.582-24.135 55.165-55.165 55.165zM924.013 422.141h-20.687v310.303c0 10.343-6.896 17.239-17.239 17.239h-496.485c-10.343 0-17.239-6.896-17.239-17.239v-82.747h-20.687v82.747c0 20.687 17.239 37.926 37.926 37.926h496.485c20.687 0 37.926-17.239 37.926-37.926v-310.303zM151.704 339.394h127.569v-20.687h-127.569v20.687zM559.74 435.822l192.598 192.598 14.628-14.628-192.598-192.598-14.628 14.628zM537.412 556.689l97.518 97.518 14.628-14.628-97.518-97.518-14.628 14.628z" />
<glyph unicode="&#xe91e;" glyph-name="diamond" horiz-adv-x="986" d="M520.62 29.091l-10.343 6.896-10.343-6.896-310.303 413.737 20.687 17.239 299.96-399.946 382.707 506.828 20.687-17.239-393.051-520.62zM131.017 553.158l-24.135 10.343 134.465 268.929h537.859l79.3-158.599-24.135-10.343-72.404 144.808h-506.828l-124.121-255.138zM117.226 570.397h782.653v-27.582h-782.653v27.582zM496.485 32.539l-162.047 486.141 24.135 6.896 162.047-486.141-24.135-6.896zM286.168 666.936l-48.269 148.256 24.135 6.896 48.269-144.808-24.135-10.343zM495.814 41.398l260.722 781.672 26.165-8.727-260.722-781.672-26.165 8.727zM672.323 553.158l-162.047 244.795-162.047-244.795-24.135 13.791 186.182 275.825 182.734-275.825z" />
<glyph unicode="&#xe91f;" glyph-name="price" horiz-adv-x="986" d="M737.832 625.562c-37.926 0-68.956 31.030-68.956 68.956s31.030 68.956 68.956 68.956c37.926 0 68.956-31.030 68.956-68.956s-31.030-68.956-68.956-68.956zM737.832 735.892c-24.135 0-41.374-20.687-41.374-41.374s17.239-44.822 41.374-44.822c24.135 0 41.374 20.687 41.374 41.374s-17.239 44.822-41.374 44.822zM393.051-8.835l-365.468 362.020 544.754 544.754h372.364v-372.364l-430.976-427.529-17.239 17.239 424.081 420.633v337.886h-337.886l-517.172-520.62 344.781-344.781zM412.637 277.044l199.912 199.912 17.066-17.066-199.912-199.912-17.066 17.066zM311.065 381.476l199.912 199.912 17.066-17.066-199.912-199.912-17.066 17.066z" />
<glyph unicode="&#xe920;" glyph-name="config" horiz-adv-x="986" d="M313.751 487.65c-62.061 0-110.33 48.269-110.33 110.33s48.269 110.33 110.33 110.33c62.061 0 110.33-48.269 110.33-110.33s-51.717-110.33-110.33-110.33zM313.751 684.175c-48.269 0-86.195-37.926-86.195-86.195s37.926-86.195 86.195-86.195c48.269 0 86.195 37.926 86.195 86.195s-41.374 86.195-86.195 86.195zM410.29 611.771h327.542v-27.582h-327.542v27.582zM637.845 149.764c-62.061 0-110.33 48.269-110.33 110.33s48.269 110.33 110.33 110.33c62.061 0 110.33-48.269 110.33-110.33s-48.269-110.33-110.33-110.33zM637.845 342.842c-48.269 0-86.195-37.926-86.195-86.195s37.926-86.195 86.195-86.195c48.269 0 86.195 37.926 86.195 86.195s-37.926 86.195-86.195 86.195zM217.212 273.886h320.646v-27.582h-320.646v27.582zM730.936 22.195h-658.532v817.131h806.788v-806.788h-24.135v779.205h-758.519v-765.414h634.397z" />
<glyph unicode="&#xe921;" glyph-name="chart" horiz-adv-x="986" d="M475.798 60.121c-103.434 0-210.316 41.374-286.168 117.226s-117.226 179.286-117.226 286.168 41.374 210.316 117.226 289.616c75.852 75.852 179.286 117.226 286.168 117.226s210.316-41.374 286.168-117.226c75.852-75.852 117.226-179.286 117.226-286.168s-41.374-210.316-117.226-286.168l-17.239 17.239c72.404 72.404 110.33 165.495 110.33 268.929s-37.926 196.525-110.33 268.929c-72.404 72.404-165.495 110.33-268.929 110.33s-196.525-41.374-268.929-113.778c-68.956-72.404-110.33-165.495-110.33-265.481s41.374-196.525 110.33-268.929c117.226-117.226 303.407-144.808 448.215-65.508l13.791-24.135c-58.613-31.030-127.569-48.269-193.077-48.269zM741.279 180.795l-286.168 289.616 379.259 155.152 10.343-24.135-341.333-141.36 258.586-262.034zM468.946 472.202l217.242 323.409 22.896-15.38-217.242-323.409-22.896 15.38z" />
<glyph unicode="&#xe922;" glyph-name="notification" horiz-adv-x="986" d="M913.67 139.421h-810.236v155.152h13.791c65.508 0 117.226 48.269 117.226 106.882h27.582c0-68.956-58.613-124.121-131.017-131.017v-103.434h758.519v103.434c-72.404 6.896-131.017 62.061-131.017 131.017v141.36c0 75.852-24.135 141.36-72.404 186.182-44.822 44.822-106.882 65.508-175.838 62.061v27.582c75.852 3.448 144.808-20.687 193.077-68.956 51.717-48.269 79.3-120.673 79.3-203.421v-141.36c0-58.613 51.717-106.882 117.226-106.882h13.791v-158.599zM262.034 401.455h-27.582v141.36c0 110.33 48.269 199.973 134.465 244.795l10.343-24.135c-79.3-41.374-120.673-120.673-120.673-220.66v-141.36zM510.276 8.404c-79.3 0-144.808 65.508-144.808 144.808v13.791h286.168v-13.791c0-79.3-62.061-144.808-141.36-144.808zM393.051 139.421c6.896-58.613 55.165-103.434 117.226-103.434s110.33 44.822 117.226 103.434h-234.451zM379.259 566.949l-24.135 6.896c17.239 58.613 62.061 106.882 117.226 131.017l10.343-27.582c-48.269-17.239-86.195-62.061-103.434-110.33zM330.99 304.916h358.572v-27.582h-358.572v27.582zM510.276 791.057c-34.478 0-65.508 31.030-65.508 65.508s31.030 65.508 65.508 65.508c20.687 0 41.374-10.343 51.717-27.582l-20.687-17.239c-6.896 10.343-17.239 17.239-31.030 17.239-20.687 0-37.926-17.239-37.926-37.926s17.239-37.926 37.926-37.926v-27.582z" />
<glyph unicode="&#xe923;" glyph-name="card" horiz-adv-x="986" d="M882.64 98.047h-799.892c-24.135 0-41.374 20.687-41.374 41.374v365.468h24.135v-362.020c0-10.343 6.896-17.239 17.239-17.239h799.892c10.343 0 17.239 6.896 17.239 17.239v248.242h24.135v-248.242c0-24.135-17.239-44.822-41.374-44.822zM924.013 504.889h-24.135v189.63c0 10.343-6.896 17.239-17.239 17.239h-799.892c-10.343 0-17.239-6.896-17.239-17.239v-75.852h-24.135v75.852c0 24.135 20.687 41.374 41.374 41.374h799.892c24.135 0 41.374-20.687 41.374-41.374v-189.63zM51.717 515.232h861.953v-24.135h-861.953v24.135zM165.495 391.111h162.047v-24.135h-162.047v24.135zM165.495 287.677h162.047v-24.135h-162.047v24.135z" />
<glyph unicode="&#xe924;" glyph-name="bullet" horiz-adv-x="986" d="M280.16 201.697l246.233 246.233 17.066-17.066-246.233-246.233-17.066 17.066zM249.641 354.938l126.737 126.827 17.073-17.061-126.737-126.827-17.073 17.061zM810.236 18.747h-651.636c-44.822 0-79.3 34.478-79.3 79.3v617.158h24.135v-617.158c0-31.030 24.135-55.165 55.165-55.165h651.636c31.030 0 55.165 24.135 55.165 55.165v165.495h24.135v-165.495c0-44.822-34.478-79.3-79.3-79.3zM889.535 415.246h-24.135v165.495c0 31.030-24.135 55.165-55.165 55.165h-551.65c-44.822 0-79.3 34.478-79.3 79.3h24.135c0-31.030 24.135-55.165 55.165-55.165h551.65c44.822 0 79.3-34.478 79.3-79.3v-165.495zM103.434 715.205h-24.135v31.030c0 44.822 34.478 79.3 79.3 79.3h537.859c44.822 0 79.3-34.478 79.3-79.3h-24.135c0 31.030-24.135 55.165-55.165 55.165h-537.859c-31.030 0-55.165-27.582-55.165-55.165v-31.030zM913.67 249.751h-179.286c-24.135 0-44.822 20.687-44.822 44.822v86.195c0 24.135 20.687 44.822 44.822 44.822h179.286c24.135 0 44.822-20.687 44.822-44.822v-86.195c0-24.135-20.687-44.822-44.822-44.822zM824.027 273.886h89.643c10.343 0 20.687 10.343 20.687 20.687v86.195c0 10.343-10.343 20.687-20.687 20.687h-179.286c-10.343 0-20.687-10.343-20.687-20.687v-86.195c0-10.343 10.343-20.687 20.687-20.687h89.643zM786.101 349.737h6.896v-24.135h-6.896v24.135z" />
<glyph unicode="&#xe925;" glyph-name="pig" horiz-adv-x="986" d="M755.071 73.912h-168.943v96.539h-199.973v-96.539h-165.495v99.987c-31.030 10.343-62.061 24.135-86.195 48.269-89.643 79.3-117.226 237.899-65.508 368.916 37.926 99.987 117.226 158.599 213.764 158.599h279.273l168.943 113.778v-137.912c79.3-37.926 131.017-120.673 131.017-210.316v-44.822h103.434v-231.003l-117.226-37.926-6.896 20.687 99.987 31.030v189.63h-106.882v65.508c0 82.747-48.269 158.599-124.121 193.077l-6.896 3.448v110.33l-137.912-93.091h-282.721c-120.673 0-172.391-89.643-193.077-141.36-44.822-120.673-20.687-272.377 62.061-344.781 24.135-24.135 55.165-37.926 86.195-44.822l10.343-3.448v-89.643h120.673v96.539h244.795v-96.539h120.673v86.195h24.135v-110.33zM293.064 608.323h237.899v-24.135h-237.899v24.135z" />
</font>
</defs>
</svg>
